<?xml version="1.0" standalone="no"?>
<!DOCTYPE svg PUBLIC "-//W3C//DTD SVG 20010904//EN"
 "http://www.w3.org/TR/2001/REC-SVG-20010904/DTD/svg10.dtd">
<svg version="1.0" xmlns="http://www.w3.org/2000/svg"
 width="450.000000pt" height="450.000000pt" viewBox="0 0 450.000000 450.000000"
 preserveAspectRatio="xMidYMid meet">
<metadata>
Created by potrace 1.10, written by Peter Selinger 2001-2011
</metadata>
<g transform="translate(0.000000,450.000000) scale(0.050000,-0.050000)"
fill="#ff0000" stroke="none">
<path d="M0 4500 l0 -4500 4500 0 4500 0 0 4500 0 4500 -4500 0 -4500 0 0
-4500z m6720 0 l0 -3200 -2220 0 -2220 0 0 3200 0 3200 2220 0 2220 0 0 -3200z"/>
<path d="M2380 4500 l0 -3080 2120 0 2120 0 0 3080 0 3080 -2120 0 -2120 0 0
-3080z m1755 1465 l5 -725 718 0 c626 0 720 -4 743 -31 22 -27 -21 -79 -322
-381 l-349 -348 -770 5 -770 5 -5 770 -5 769 335 336 c455 456 414 495 420
-400z m313 -2237 c28 -11 32 -66 32 -409 0 -453 11 -510 100 -492 70 14 74 9
91 -120 13 -101 13 -102 -52 -124 -140 -49 -296 -30 -371 45 l-68 68 0 511 0
510 45 9 c73 14 189 15 223 2z m612 -292 l10 -294 90 129 90 128 167 1 c131 0
164 -5 149 -25 -11 -14 -70 -90 -133 -169 -139 -177 -141 -146 27 -396 173
-258 173 -250 -8 -250 -165 0 -159 -4 -274 183 -86 140 -113 128 -122 -54 l-6
-119 -150 0 -150 0 -5 560 c-7 667 -23 606 159 602 l146 -3 10 -293z m1160
-153 l0 -138 -85 -13 c-169 -27 -175 -39 -175 -322 l0 -250 -150 0 -150 0 0
420 0 420 140 0 c138 0 140 -1 140 -53 l0 -54 45 41 c156 141 235 124 235 -51z
m-3144 12 c21 -58 64 -177 96 -265 l57 -160 18 83 c16 72 9 107 -53 265 l-71
182 129 0 128 0 24 -90 c13 -49 30 -90 36 -90 6 0 23 41 36 90 l24 90 128 0
128 0 -71 -181 c-61 -158 -68 -192 -52 -265 l18 -84 87 250 c107 305 87 283
257 276 l142 -6 -66 -160 c-36 -88 -113 -275 -171 -415 l-104 -255 -116 0
c-133 0 -142 8 -191 165 -43 137 -55 141 -88 30 -55 -185 -69 -198 -204 -191
l-120 6 -130 320 c-72 176 -148 363 -168 415 l-38 95 148 0 148 0 39 -105z"/>
</g>
</svg>
